<svg width="86" height="95" viewBox="0 0 86 95" fill="none" xmlns="http://www.w3.org/2000/svg">
<path d="M50.7174 62.275C50.6233 61.8277 50.9094 61.3844 51.3523 61.2933L67.493 57.8496C67.9359 57.7546 68.371 58.0436 68.465 58.4909C68.5591 58.9382 68.273 59.3815 67.8301 59.4725L51.6894 62.9162C51.6306 62.9281 51.5757 62.936 51.5209 62.936C51.1407 62.9321 50.7997 62.6669 50.7174 62.275ZM51.5209 71.5652C51.5757 71.5652 51.6345 71.5573 51.6894 71.5454L67.8301 68.1017C68.273 68.0067 68.5591 67.5673 68.465 67.12C68.371 66.6727 67.9359 66.3838 67.493 66.4788L51.3523 69.9225C50.9094 70.0175 50.6233 70.4568 50.7174 70.9041C50.7997 71.296 51.1407 71.5652 51.5209 71.5652ZM67.493 75.1118L51.3523 78.5555C50.9094 78.6505 50.6232 79.0899 50.7173 79.5372C50.7996 79.929 51.1406 80.1942 51.5208 80.1942C51.5757 80.1942 51.6345 80.1863 51.6894 80.1745L67.83 76.7308C68.273 76.6358 68.5591 76.1964 68.465 75.7491C68.3709 75.3058 67.9359 75.0168 67.493 75.1118ZM51.5209 54.3031C51.5757 54.3031 51.6345 54.2952 51.6894 54.2833L67.8301 50.8396C68.273 50.7446 68.5591 50.3053 68.465 49.858C68.371 49.4107 67.9359 49.1217 67.493 49.2167L51.3523 52.6644C50.9094 52.7594 50.6233 53.1988 50.7174 53.646C50.7997 54.034 51.1407 54.3031 51.5209 54.3031ZM17.8949 48.805L34.0356 59.1562C34.1728 59.2432 34.3256 59.2868 34.4746 59.2868C34.745 59.2868 35.0116 59.1522 35.1684 58.9028C35.4114 58.5149 35.2977 58.0043 34.9136 57.7589L18.7729 47.4077C18.3888 47.1623 17.8832 47.2771 17.6402 47.665C17.4011 48.045 17.5147 48.5556 17.8949 48.805ZM17.8949 57.4341L34.0356 67.7852C34.1728 67.8723 34.3256 67.9159 34.4746 67.9159C34.745 67.9159 35.0116 67.7813 35.1684 67.5319C35.4114 67.144 35.2977 66.6334 34.9136 66.388L18.7729 56.0368C18.3888 55.7914 17.8832 55.9062 17.6402 56.2941C17.4011 56.6741 17.5147 57.1887 17.8949 57.4341ZM17.8949 66.0632L34.0356 76.4143C34.1728 76.5014 34.3256 76.545 34.4746 76.545C34.745 76.545 35.0116 76.4104 35.1684 76.161C35.4114 75.7731 35.2977 75.2625 34.9136 75.0171L18.7729 64.6659C18.3888 64.4205 17.8832 64.5353 17.6402 64.9232C17.4011 65.3072 17.5147 65.8178 17.8949 66.0632ZM17.8949 40.1717L34.0356 50.5228C34.1728 50.6099 34.3256 50.6534 34.4746 50.6534C34.745 50.6534 35.0116 50.5189 35.1684 50.2695C35.4114 49.8816 35.2977 49.3709 34.9136 49.1255L18.7729 38.7744C18.3888 38.529 17.8832 38.6438 17.6402 39.0317C17.4011 39.4156 17.5147 39.9263 17.8949 40.1717ZM85.499 45.741V91.2455C85.499 92.2588 85.06 93.2959 84.3231 94.0124C83.6724 94.6536 82.8336 94.998 81.9518 94.998C81.9126 94.998 81.8773 94.998 81.8381 94.9941L42.9995 93.7076L4.1609 94.998C3.23589 95.0297 2.35398 94.6814 1.67588 94.0164C0.939007 93.2959 0.5 92.2628 0.5 91.2495V45.745C0.5 44.5456 1.09577 43.4768 2.17367 42.7407C2.94189 42.2142 3.81593 41.9411 4.7488 41.9292V37.294C4.7488 36.0947 5.34456 35.0259 6.42247 34.2897C7.19069 33.7633 8.06864 33.4902 8.99759 33.4783V25.8348C8.99759 24.6117 9.56984 23.6854 10.5693 23.2935C11.22 23.0362 12.2899 22.9175 13.6657 23.8042L43.1606 42.721L72.6124 36.4391C73.7059 36.2056 74.7917 36.4668 75.6619 37.1793C76.4379 37.8166 76.8926 38.6597 76.9906 39.6375C78.041 39.4514 79.0757 39.7166 79.9107 40.4014C80.432 40.825 80.8004 41.3475 81.0238 41.9372C82.039 41.9056 82.9993 42.1747 83.8342 42.7447C84.9042 43.4731 85.5 44.5418 85.5 45.7411L85.499 45.741ZM77.1935 41.2761L77.0015 41.3157V83.4873C77.0015 85.2449 75.8139 86.7252 74.1089 87.0894L57.337 90.6677L78.1104 88.6726C79.0472 88.5816 79.6077 87.6039 79.6077 86.7093V43.2548C79.6077 42.6175 79.3608 42.0871 78.8669 41.6833C78.377 41.2835 77.8128 41.1455 77.1935 41.2761ZM43.8225 44.2686V91.8554L73.776 85.4667C74.7088 85.2688 75.3633 84.4534 75.3633 83.4915V40.6511V40.6471V40.0336C75.3633 39.3963 75.1164 38.8659 74.6225 38.4621C74.1326 38.0584 73.5682 37.9238 72.9489 38.0544L43.8225 44.2686ZM10.636 69.2815C10.636 70.3542 11.416 71.6367 12.4939 72.3294L42.1765 91.3688V44.0515L12.7799 25.1985C12.4467 24.9848 11.996 24.7631 11.561 24.7631C11.4238 24.7631 11.2866 24.7869 11.1572 24.8344C11.0005 24.8937 10.636 25.0362 10.636 25.8279L10.636 69.2815ZM6.39114 37.2908V42.6107C6.4225 42.7255 6.43034 42.8443 6.41074 42.967C6.40682 42.9907 6.39898 43.0066 6.39114 43.0303V82.7953C6.39114 83.7889 7.25736 84.6359 8.54684 84.9011L38.7903 91.1592L11.6162 73.731C10.0484 72.7256 8.99406 70.9404 8.99406 69.2859V35.1337C8.39437 35.1495 7.82992 35.3237 7.34006 35.6601C6.70901 36.0916 6.39114 36.6416 6.39114 37.2908ZM36.0145 92.28L8.21733 86.5286C6.1439 86.0971 4.74858 84.6009 4.74858 82.7959V43.5892C4.14888 43.605 3.58443 43.7792 3.09457 44.1157C2.46352 44.5471 2.14212 45.0934 2.14212 45.7465V91.251C2.14212 91.817 2.40081 92.4187 2.81629 92.8264C3.06714 93.0718 3.49437 93.3648 4.10586 93.341L36.0145 92.28ZM83.8566 45.7419C83.8566 45.0888 83.5352 44.5426 82.9042 44.1111C82.4142 43.7746 81.8537 43.6005 81.2502 43.5846V86.7068C81.2502 88.6028 79.9685 90.1584 78.2673 90.3207L55.8755 92.4701L81.8936 93.333C82.509 93.3528 82.9324 93.0638 83.1832 92.8184C83.5987 92.4107 83.8574 91.8091 83.8574 91.243L83.8535 45.7426L83.8566 45.7419ZM36.4691 21.7149C35.6264 20.4601 34.67 19.0431 34.67 16.5453C34.67 11.9062 38.4053 8.1339 42.999 8.1339C47.5926 8.1339 51.328 11.9062 51.328 16.5453C51.328 19.039 50.3716 20.4601 49.5289 21.7149C48.7999 22.7995 48.1688 23.7376 48.1257 25.3368C48.0748 27.2091 47.9611 31.5909 43.0068 31.6344H42.999H42.9911C38.0368 31.5908 37.9192 27.205 37.8722 25.3368C37.8291 23.7376 37.198 22.8034 36.4691 21.7149ZM46.4129 26.453H39.5851C39.8516 29.0061 40.8198 29.9522 42.999 29.976C45.1783 29.9522 46.1464 29.0062 46.4129 26.453ZM36.3127 16.5454C36.3127 18.5325 37.0496 19.625 37.8256 20.7808C38.5272 21.8258 39.3151 22.9975 39.4836 24.7945H42.1763V21.6794C42.1763 21.2202 42.5447 20.8481 42.9994 20.8481C43.454 20.8481 43.8225 21.2202 43.8225 21.6794V24.7945H46.5152C46.6838 22.9975 47.4677 21.8258 48.1731 20.7808C48.9531 19.6211 49.6861 18.5285 49.6861 16.5454C49.6861 12.8206 46.6876 9.79251 42.9993 9.79251C39.311 9.79251 36.3127 12.8206 36.3127 16.5454ZM42.9995 3.09148C43.4541 3.09148 43.8226 2.7194 43.8226 2.26024V0.831243C43.8226 0.372084 43.4541 0 42.9995 0C42.5448 0 42.1764 0.372084 42.1764 0.831243V2.26419C42.1764 2.7194 42.5448 3.09148 42.9995 3.09148ZM33.0948 6.74898C33.2555 6.91128 33.4672 6.99044 33.6749 6.99044C33.8866 6.99044 34.0943 6.90731 34.255 6.74898C34.5764 6.42441 34.5764 5.89795 34.255 5.57332L33.2516 4.55999C32.9302 4.23542 32.4089 4.23542 32.0874 4.55999C31.766 4.88457 31.766 5.41103 32.0874 5.73566L33.0948 6.74898ZM28.3953 16.4113H29.8142C30.2689 16.4113 30.6373 16.0392 30.6373 15.58C30.6373 15.1209 30.2689 14.7488 29.8142 14.7488H28.3953C27.9406 14.7488 27.5722 15.1209 27.5722 15.58C27.5722 16.0392 27.9406 16.4113 28.3953 16.4113ZM56.1845 16.4113H57.6034C58.058 16.4113 58.4265 16.0392 58.4265 15.58C58.4265 15.1209 58.058 14.7488 57.6034 14.7488H56.1845C55.7298 14.7488 55.3614 15.1209 55.3614 15.58C55.3653 16.0392 55.7337 16.4113 56.1845 16.4113ZM52.3237 6.99441C52.5353 6.99441 52.7431 6.91129 52.9038 6.75296L53.9072 5.73963C54.2286 5.41505 54.2286 4.8886 53.9072 4.56397C53.5858 4.23939 53.0645 4.23939 52.743 4.56397L51.7396 5.57729C51.4182 5.90187 51.4182 6.42833 51.7396 6.75296C51.9042 6.91129 52.112 6.99441 52.3237 6.99441Z" fill="#DB9C3A"/>
</svg>
