<svg width="86" height="95" viewBox="0 0 86 95" fill="none" xmlns="http://www.w3.org/2000/svg">
<path d="M75.2946 71.0854C75.2805 71.1107 75.2592 71.1359 75.2379 71.1612L66.0751 82.948C65.1957 84.0718 64.3659 85.1324 61.5717 86.5719L58.0115 88.5732C56.9193 89.1856 56.3449 90.1578 56.3449 91.3826V94.173C56.3449 94.6276 55.9335 94.9938 55.4229 94.9938C54.9123 94.9938 54.501 94.6276 54.501 94.173V91.3826C54.501 89.5896 55.4016 88.0934 57.0328 87.1779L60.6072 85.1703C60.6142 85.164 60.6284 85.1577 60.6355 85.1514C63.0823 83.895 63.7347 83.0554 64.5645 82.0011L64.5928 81.9632L73.6919 70.2647C73.9968 69.7344 73.9826 69.2609 73.6422 69.0146C73.1529 68.6674 71.7983 68.7242 70.2452 70.3846C70.2452 70.3909 70.2381 70.3909 70.2381 70.3973L62.8624 78.03C62.7915 78.0995 62.7135 78.1626 62.6213 78.2068L61.5929 78.7371C61.6426 78.9202 61.6639 79.1033 61.6568 79.2927C61.6426 80.1513 61.0752 80.9152 60.1036 81.395L53.4301 84.8231C52.9904 85.0504 52.423 84.9178 52.1677 84.5201C51.9124 84.1286 52.0613 83.6236 52.5081 83.3963L59.1958 79.9619C59.2029 79.9556 59.21 79.9556 59.2171 79.9492C59.6072 79.7598 59.8128 79.5263 59.8128 79.2611C59.8199 78.9076 59.5008 78.5098 59.0044 78.251C58.5788 78.03 57.4087 77.6007 55.7491 78.4593L48.1395 82.3609C46.6076 83.2006 46.2601 85.808 46.253 86.7423V94.1794C46.253 94.6339 45.8416 95.0001 45.331 95.0001C44.8204 95.0001 44.4091 94.6339 44.4091 94.1794V86.736C44.4091 86.5592 44.4516 82.4304 47.1891 80.9467C47.1962 80.9404 47.2033 80.9404 47.2104 80.9341L54.8272 77.0325C56.5647 76.1423 58.4796 76.0666 59.9405 76.8368C60.2029 76.9757 60.444 77.1398 60.6568 77.3166L61.5646 76.8494L68.8339 69.3366C71.0891 66.925 73.5075 66.8176 74.7982 67.7394C75.8549 68.4906 76.0606 69.8354 75.2946 71.0854ZM39.1043 80.9467C39.0972 80.9404 39.0901 80.9404 39.083 80.9341L31.4662 77.0325C29.7287 76.1423 27.8138 76.0666 26.3458 76.8368C26.0834 76.9757 25.8423 77.1398 25.6295 77.3166L24.7217 76.8494L17.4524 69.3366C15.1972 66.925 12.7788 66.8176 11.4881 67.7394C10.4314 68.4906 10.2328 69.8417 10.9916 71.0917C11.0058 71.117 11.0271 71.1422 11.0484 71.1675L20.1829 82.9102L20.2112 82.948C21.0906 84.0718 21.9204 85.1324 24.7146 86.5719L28.2748 88.5732C29.367 89.1856 29.9414 90.1578 29.9414 91.3826V94.173C29.9414 94.6276 30.3528 94.9938 30.8634 94.9938C31.374 94.9938 31.7853 94.6276 31.7853 94.173V91.3826C31.7853 89.5896 30.8847 88.0934 29.2535 87.1779L25.6791 85.1703C25.672 85.164 25.6579 85.1577 25.6508 85.1514C23.204 83.895 22.5516 83.0554 21.7218 82.0011L12.6015 70.271C12.2966 69.7407 12.3108 69.2672 12.6512 69.021C13.1405 68.6737 14.4951 68.7306 16.0482 70.3909C16.0482 70.3973 16.0553 70.3973 16.0553 70.4036L23.431 78.03C23.5019 78.0995 23.5799 78.1626 23.6721 78.2068L24.7004 78.7371C24.6508 78.9202 24.6295 79.1033 24.6366 79.2927C24.6508 80.1513 25.2182 80.9152 26.1898 81.395L32.8633 84.8231C33.303 85.0504 33.8704 84.9178 34.1257 84.5201C34.381 84.1286 34.2321 83.6236 33.7853 83.3963L27.0975 79.9619C27.0904 79.9556 27.0834 79.9556 27.0763 79.9492C26.6862 79.7598 26.4805 79.5263 26.4805 79.2611C26.4734 78.9076 26.7926 78.5098 27.289 78.251C27.7145 78.03 28.8847 77.6007 30.5442 78.4593L38.1539 82.3546C39.6858 83.1943 40.0333 85.8016 40.0404 86.736V94.173C40.0404 94.6276 40.4517 94.9938 40.9624 94.9938C41.473 94.9938 41.8843 94.6276 41.8843 94.173V86.736C41.8843 86.5592 41.8418 82.4304 39.1043 80.9467Z" fill="#DB9C3A"/>
<path d="M50.7174 34.6591C50.6233 34.2633 50.9094 33.871 51.3523 33.7904L67.493 30.7432C67.9359 30.6591 68.371 30.9148 68.465 31.3106C68.5591 31.7064 68.273 32.0987 67.8301 32.1792L51.6894 35.2265C51.6306 35.237 51.5757 35.244 51.5209 35.244C51.1407 35.2405 50.7997 35.0058 50.7174 34.6591ZM51.5209 42.8797C51.5757 42.8797 51.6345 42.8727 51.6894 42.8622L67.8301 39.815C68.273 39.7309 68.5591 39.3421 68.465 38.9463C68.371 38.5505 67.9359 38.2948 67.493 38.3789L51.3523 41.4261C50.9094 41.5102 50.6233 41.899 50.7174 42.2948C50.7997 42.6415 51.1407 42.8797 51.5209 42.8797ZM67.493 46.0181L51.3523 49.0653C50.9094 49.1494 50.6232 49.5381 50.7173 49.9339C50.7996 50.2807 51.1406 50.5154 51.5208 50.5154C51.5757 50.5154 51.6345 50.5084 51.6894 50.4979L67.83 47.4506C68.273 47.3666 68.5591 46.9778 68.465 46.582C68.3709 46.1897 67.9359 45.934 67.493 46.0181ZM51.5209 27.605C51.5757 27.605 51.6345 27.598 51.6894 27.5875L67.8301 24.5402C68.273 24.4562 68.5591 24.0674 68.465 23.6716C68.371 23.2758 67.9359 23.0201 67.493 23.1042L51.3523 26.1549C50.9094 26.239 50.6233 26.6277 50.7174 27.0235C50.7997 27.3668 51.1407 27.605 51.5209 27.605ZM17.8949 22.7398L34.0356 31.8993C34.1728 31.9764 34.3256 32.0149 34.4746 32.0149C34.745 32.0149 35.0116 31.8958 35.1684 31.6751C35.4114 31.3319 35.2977 30.88 34.9136 30.6629L18.7729 21.5034C18.3888 21.2863 17.8832 21.3878 17.6402 21.7311C17.4011 22.0673 17.5147 22.5192 17.8949 22.7398ZM17.8949 30.3755L34.0356 39.535C34.1728 39.612 34.3256 39.6506 34.4746 39.6506C34.745 39.6506 35.0116 39.5315 35.1684 39.3108C35.4114 38.9675 35.2977 38.5157 34.9136 38.2985L18.7729 29.1391C18.3888 28.9219 17.8832 29.0235 17.6402 29.3668C17.4011 29.703 17.5147 30.1583 17.8949 30.3755ZM17.8949 38.0112L34.0356 47.1706C34.1728 47.2477 34.3256 47.2862 34.4746 47.2862C34.745 47.2862 35.0116 47.1671 35.1684 46.9465C35.4114 46.6032 35.2977 46.1514 34.9136 45.9342L18.7729 36.7748C18.3888 36.5576 17.8832 36.6592 17.6402 37.0024C17.4011 37.3422 17.5147 37.794 17.8949 38.0112ZM17.8949 15.1004L34.0356 24.2599C34.1728 24.3369 34.3256 24.3755 34.4746 24.3755C34.745 24.3755 35.0116 24.2564 35.1684 24.0357C35.4114 23.6924 35.2977 23.2406 34.9136 23.0234L18.7729 13.864C18.3888 13.6468 17.8832 13.7484 17.6402 14.0917C17.4011 14.4314 17.5147 14.8832 17.8949 15.1004ZM85.499 20.0286V60.2944C85.499 61.191 85.06 62.1087 84.3231 62.7427C83.6724 63.3101 82.8336 63.6149 81.9518 63.6149C81.9126 63.6149 81.8773 63.6149 81.8381 63.6114L42.9995 62.4731L4.1609 63.6149C3.23589 63.6429 2.35398 63.3347 1.67588 62.7462C0.939007 62.1087 0.5 61.1945 0.5 60.2979V20.0321C0.5 18.9708 1.09577 18.0251 2.17367 17.3736C2.94189 16.9078 3.81593 16.6661 4.7488 16.6556V12.5541C4.7488 11.4928 5.34456 10.547 6.42247 9.89562C7.19069 9.42977 8.06864 9.18809 8.99759 9.17758V2.41402C8.99759 1.33174 9.56984 0.512091 10.5693 0.165349C11.22 -0.0623238 12.2899 -0.167395 13.6657 0.61719L43.1606 17.3562L72.6124 11.7976C73.7059 11.5909 74.7917 11.8221 75.6619 12.4526C76.4379 13.0165 76.8926 13.7625 76.9906 14.6277C78.041 14.4631 79.0757 14.6977 79.9107 15.3037C80.432 15.6785 80.8004 16.1408 81.0238 16.6627C82.039 16.6347 82.9993 16.8729 83.8342 17.3772C84.9042 18.0217 85.5 18.9674 85.5 20.0287L85.499 20.0286ZM77.1935 16.0777L77.0015 16.1127V53.4293C77.0015 54.9845 75.8139 56.2945 74.1089 56.6167L57.337 59.7831L78.1104 58.0177C79.0472 57.9371 79.6077 57.072 79.6077 56.2804V17.8286C79.6077 17.2646 79.3608 16.7953 78.8669 16.438C78.377 16.0843 77.8128 15.9621 77.1935 16.0777ZM43.8225 18.7256V60.8341L73.776 55.1808C74.7088 55.0057 75.3633 54.2842 75.3633 53.4331V15.5246V15.5211V14.9782C75.3633 14.4143 75.1164 13.945 74.6225 13.5876C74.1326 13.2304 73.5682 13.1113 72.9489 13.2269L43.8225 18.7256ZM10.636 40.859C10.636 41.8082 11.416 42.943 12.4939 43.556L42.1765 60.4035V18.5336L12.7799 1.85105C12.4467 1.6619 11.996 1.46576 11.561 1.46576C11.4238 1.46576 11.2866 1.48677 11.1572 1.5288C11.0005 1.58134 10.636 1.70744 10.636 2.40796L10.636 40.859ZM6.39114 12.5512V17.2587C6.4225 17.3603 6.43034 17.4653 6.41074 17.5739C6.40682 17.5949 6.39898 17.6089 6.39114 17.63V52.817C6.39114 53.6962 7.25736 54.4457 8.54684 54.6804L38.7903 60.218L11.6162 44.7962C10.0484 43.9066 8.99406 42.3269 8.99406 40.8628V10.6424C8.39437 10.6564 7.82992 10.8105 7.34006 11.1082C6.70901 11.49 6.39114 11.9767 6.39114 12.5512ZM36.0145 61.2098L8.21733 56.1205C6.1439 55.7387 4.74858 54.4147 4.74858 52.8175V18.1245C4.14888 18.1385 3.58443 18.2926 3.09457 18.5903C2.46352 18.9721 2.14212 19.4555 2.14212 20.0334V60.2992C2.14212 60.8001 2.40081 61.3325 2.81629 61.6933C3.06714 61.9104 3.49437 62.1696 4.10586 62.1486L36.0145 61.2098ZM83.8566 20.0294C83.8566 19.4515 83.5352 18.9681 82.9042 18.5863C82.4142 18.2886 81.8537 18.1344 81.2502 18.1204V56.2782C81.2502 57.9559 79.9685 59.3324 78.2673 59.476L55.8755 61.378L81.8936 62.1415C82.509 62.159 82.9324 61.9034 83.1832 61.6862C83.5987 61.3254 83.8574 60.793 83.8574 60.2921L83.8535 20.0299L83.8566 20.0294Z" fill="#DB9C3A"/>
</svg>
