<svg width="86" height="95" viewBox="0 0 86 95" fill="none" xmlns="http://www.w3.org/2000/svg">
<path fill-rule="evenodd" clip-rule="evenodd" d="M85.2622 41.6472C84.9805 38.8263 82.9199 36.6267 80.3553 36.4141L74.3218 35.805C73.1358 35.6987 72.1019 34.8728 71.6386 33.6626C71.179 32.4525 71.368 31.0583 72.1315 30.0486L75.9932 24.9218C77.6498 22.7346 77.6498 19.5497 75.9932 17.3624C74.0549 14.7377 71.8683 12.3419 69.4742 10.2242C67.4655 8.4376 64.5859 8.4825 62.6253 10.3305L58.0038 14.6233C57.0958 15.4696 55.8395 15.6903 54.735 15.1956C53.6343 14.701 52.8746 13.5726 52.7671 12.2684L52.252 5.62067C52.0407 2.77931 50.0061 0.514329 47.4341 0.252674C44.3877 -0.0948339 41.3153 -0.0825678 38.2689 0.281293C35.6969 0.579746 33.6845 2.861 33.4769 5.70246L32.9728 12.3502H32.9765C32.8913 13.6462 32.1612 14.7868 31.079 15.3019C29.9821 15.8252 28.7108 15.6167 27.8029 14.7582L23.0887 10.5104C21.1059 8.67471 18.2152 8.67471 16.2287 10.5104C13.8605 12.6281 11.7072 15.028 9.80603 17.6568C8.1753 19.8686 8.20869 23.0493 9.89127 25.2121L13.7901 30.3103C14.5498 31.3038 14.7426 32.6815 14.283 33.8795C13.8383 35.1019 12.808 35.9441 11.6183 36.0544L5.60338 36.6718V36.6759C3.02768 36.913 0.974472 39.1534 0.726181 41.9907C0.574228 43.6097 0.500111 45.241 0.500111 46.8681C0.496405 48.618 0.585352 50.3636 0.76324 52.1012C1.0412 54.9222 3.10554 57.1217 5.67013 57.3343L11.7037 57.9516C12.8896 58.0579 13.9236 58.8838 14.3869 60.094C14.8464 61.3041 14.6574 62.6983 13.8939 63.708L10.0322 68.8348C8.37558 71.022 8.37558 74.2069 10.0322 76.3942C11.9668 79.023 14.1534 81.4147 16.5512 83.5324C18.5637 85.3272 21.447 85.2823 23.4112 83.4261L28.0216 79.1333C28.8259 78.3688 29.9229 78.1031 30.9457 78.422C31.9093 78.7163 32.6912 79.489 33.0619 80.5152V83.467H53.0115V82.1301L53.0671 81.4392H53.0708C53.1672 80.1309 53.9195 78.9944 55.0165 78.4874C56.1135 77.9804 57.3736 78.189 58.289 79.0312L62.9364 83.2912C64.9191 85.1187 67.8025 85.1187 69.7853 83.2912C72.1609 81.1694 74.3178 78.7695 76.219 76.1326C77.8497 73.9207 77.8163 70.7401 76.1338 68.5732L72.2349 63.475V63.4791C71.453 62.4856 71.2528 61.0873 71.7124 59.8772C72.1571 58.6548 73.1874 57.8126 74.3771 57.7023L80.392 57.0972V57.0931C82.9677 56.8478 85.0172 54.6156 85.2692 51.7783C85.4212 50.1552 85.499 48.528 85.499 46.9008C85.5101 45.1428 85.429 43.3888 85.2622 41.6472ZM51.2587 73.0949H43.8947V53.4709L50.2247 45.4536C50.4841 45.0447 50.4211 44.4846 50.0764 44.1616C49.7355 43.8345 49.224 43.8468 48.8942 44.1902L43.0126 51.6719L37.1311 44.2188C36.9791 44.0226 36.7642 43.904 36.5307 43.8876C36.3009 43.8672 36.0711 43.9531 35.897 44.1248C35.7191 44.2924 35.6116 44.5295 35.5931 44.783C35.5745 45.0406 35.6524 45.294 35.8006 45.4862L42.1306 53.5035V73.0951H34.7667C34.7667 66.7337 32.6134 63.4139 30.5454 60.1924C28.4774 56.9709 26.3242 53.6511 26.3242 46.9014C26.3242 36.1527 33.8105 27.4124 43.0129 27.4124C52.2153 27.4124 59.713 36.1533 59.713 46.9014C59.713 53.6513 57.6523 56.832 55.4917 60.1924C53.3274 63.553 51.266 66.7336 51.2587 73.0949ZM83.5165 51.566C83.3497 53.4875 81.9636 55.0002 80.2217 55.1556L74.2068 55.7729V55.777C72.3723 55.9651 70.7823 57.2611 70.0818 59.1417C69.3851 61.0224 69.689 63.1769 70.8787 64.7346L74.7775 69.8328C75.9078 71.2923 75.9375 73.4346 74.8442 74.9269C73.0023 77.4617 70.9232 79.7756 68.6402 81.8239C67.3022 83.0626 65.3529 83.0626 64.0187 81.8239L59.3713 77.5638H59.3675C57.9481 76.2678 55.995 75.9448 54.2939 76.7298C53.8158 76.9506 53.371 77.2572 52.9745 77.6292V73.1402C52.9745 67.3716 54.872 64.432 56.8734 61.3249C59.1119 57.8621 61.4282 54.2725 61.4282 46.9015C61.4652 35.082 53.1821 25.5076 43.0127 25.5076C32.8434 25.5076 24.5603 35.0825 24.5603 46.9015C24.5603 54.2278 26.8766 57.8585 29.1151 61.3249C31.1164 64.4648 33.0139 67.3756 33.0139 73.1402V77.482C32.521 77.0772 31.9651 76.7747 31.3721 76.5907C29.8008 76.0756 28.096 76.4681 26.847 77.6373L22.2255 82.0241C20.9025 83.2752 18.9567 83.2998 17.604 82.0855C15.3062 80.0617 13.2086 77.7722 11.3519 75.2539C10.2363 73.7738 10.2363 71.6234 11.3519 70.1434L15.2025 65.0167H15.2062C16.3885 63.4549 16.6849 61.2963 15.9697 59.4197C15.2581 57.5431 13.6571 56.2635 11.8188 56.0999L5.7927 55.5357C4.05087 55.3886 2.65734 53.8841 2.48314 51.9666C2.30525 50.2821 2.2163 48.5936 2.2163 46.9012C2.23113 45.3476 2.31637 43.794 2.47202 42.2527C2.6388 40.3353 4.02486 38.8267 5.76308 38.6631L11.778 38.0662C13.6162 37.8823 15.2099 36.5821 15.9067 34.7016C16.6071 32.8168 16.2958 30.6582 15.0987 29.1086L11.2073 24.0227L11.211 24.0186C10.0769 22.5591 10.0472 20.4127 11.1443 18.9123C12.9936 16.3571 15.0913 14.0308 17.3964 11.9744C18.7344 10.7438 20.68 10.7438 22.0179 11.9744L26.6653 16.2344C28.0811 17.5386 30.0379 17.8616 31.7427 17.0766C33.4438 16.2917 34.6075 14.5255 34.7595 12.4977L35.2709 5.84997C35.408 3.93256 36.7645 2.39529 38.4952 2.18681C41.423 1.84339 44.373 1.84339 47.3008 2.18681C49.0352 2.37078 50.4028 3.89572 50.5548 5.80904L51.1144 12.4567C51.3108 14.4396 52.4745 16.1485 54.1497 16.9089C55.8248 17.6653 57.7409 17.3505 59.1418 16.0872L63.7633 11.7944C65.0826 10.5393 67.032 10.5065 68.3811 11.7208C70.6826 13.7486 72.7802 16.0381 74.6332 18.5565C75.7524 20.0365 75.7524 22.187 74.6332 23.6628L70.7826 28.7895V28.7936C69.6003 30.3554 69.3075 32.514 70.0191 34.3906C70.7307 36.2672 72.3317 37.5509 74.1699 37.7226L80.1961 38.2868C81.9379 38.4258 83.3351 39.9263 83.5056 41.8437C83.6946 43.5199 83.7947 45.2083 83.8095 46.9009C83.7947 48.4586 83.7095 50.0163 83.5538 51.5657L83.5165 51.566ZM63.5925 24.1541V24.1581C63.9335 24.5384 63.9335 25.1475 63.5925 25.5278L59.6159 29.9432C59.2712 30.3194 58.719 30.3194 58.378 29.9391C58.0371 29.563 58.0408 28.9498 58.3818 28.5736L62.3844 24.1581H62.3881C62.5475 23.9701 62.7735 23.8679 63.007 23.8679C63.2405 23.8679 63.4666 23.9701 63.6296 24.1581L63.5925 24.1541ZM72.1314 46.897V46.9011C72.1314 47.1546 72.0387 47.3999 71.8756 47.5798C71.7089 47.7597 71.4902 47.8619 71.2567 47.8619H65.5642C65.3159 47.8905 65.0676 47.8006 64.8822 47.6166C64.6969 47.4326 64.5895 47.171 64.5895 46.893C64.5895 46.619 64.6969 46.3574 64.8822 46.1734C65.0676 45.9853 65.3159 45.8995 65.5642 45.9281H71.2567C71.4976 45.9158 71.7274 46.018 71.8979 46.202C72.0721 46.3819 72.1684 46.6354 72.1684 46.9011L72.1314 46.897ZM63.5925 68.2711C63.8853 68.6595 63.8594 69.2277 63.5369 69.5834C63.2145 69.9391 62.6994 69.9677 62.3473 69.6448L58.3818 65.217C58.0408 64.8409 58.0371 64.2277 58.378 63.8515C58.719 63.4713 59.2712 63.4672 59.6159 63.8433L63.5925 68.2711ZM22.3585 68.2711L26.3611 63.8434C26.7058 63.4672 27.2617 63.4672 27.6064 63.8434C27.7731 64.0232 27.8695 64.2726 27.8695 64.5302C27.8695 64.7878 27.7731 65.0372 27.6064 65.217L23.6037 69.6448H23.6C23.4407 69.8533 23.2109 69.98 22.9626 69.9923C22.7143 70.0045 22.4734 69.8982 22.2992 69.7061C22.125 69.5139 22.0323 69.2482 22.0435 68.9743C22.0546 68.7003 22.1695 68.4469 22.3585 68.2711ZM21.2874 46.9012C21.28 47.4327 20.8872 47.862 20.4054 47.862H14.7128C14.4608 47.8906 14.2162 47.8007 14.0272 47.6167C13.8419 47.4327 13.7381 47.1711 13.7381 46.8931C13.7381 46.6191 13.8419 46.3575 14.0272 46.1735C14.2162 45.9854 14.4608 45.8996 14.7128 45.9282H20.4054C20.8909 45.9282 21.2874 46.3616 21.2874 46.9012ZM27.6434 28.5729C27.888 28.8509 27.9621 29.2638 27.8287 29.6236C27.6952 29.9833 27.3765 30.2205 27.0244 30.2286C26.791 30.2205 26.5686 30.1183 26.3981 29.9425L22.3955 25.5066C22.0545 25.1264 22.0545 24.5131 22.3955 24.137C22.5585 23.9489 22.7846 23.8426 23.0181 23.8426C23.2516 23.8426 23.4777 23.9489 23.637 24.137L27.6434 28.5729ZM43.8947 15.6984V21.9781C43.8947 22.5178 43.4981 22.9512 43.0126 22.9512C42.5271 22.9512 42.1306 22.5178 42.1306 21.9781V15.6984C42.1306 15.1629 42.5271 14.7254 43.0126 14.7254C43.4981 14.7254 43.8947 15.1629 43.8947 15.6984ZM33.1547 85.466H52.8709C52.2186 90.9239 48.0011 95 43.0123 95C38.0235 95 33.8074 90.924 33.1547 85.466Z" fill="#DB9C3A"/>
</svg>
