<svg width="20" height="20" viewBox="0 0 20 20" fill="none" xmlns="http://www.w3.org/2000/svg">
<path opacity="0.8" fill-rule="evenodd" clip-rule="evenodd" d="M14.5437 11.9684C14.297 11.8455 13.0839 11.2514 12.8577 11.1695C12.6315 11.0876 12.467 11.0466 12.3025 11.2924C12.138 11.5382 11.6652 12.0914 11.5212 12.2553C11.3773 12.4191 11.2334 12.4397 10.9866 12.3167C10.7399 12.1938 9.94483 11.9345 9.00237 11.0979C8.26885 10.4468 7.77364 9.64252 7.62967 9.39669C7.48576 9.15085 7.61435 9.01797 7.73792 8.89552C7.84887 8.78554 7.98462 8.60874 8.108 8.46533C8.23137 8.32192 8.2725 8.21949 8.35475 8.05563C8.437 7.89173 8.39587 7.74831 8.33416 7.62539C8.2725 7.50248 7.77904 6.29379 7.57342 5.80211C7.37315 5.32328 7.16971 5.38807 7.01825 5.38056C6.87448 5.37343 6.70983 5.37192 6.54533 5.37192C6.38083 5.37192 6.11354 5.4334 5.88733 5.67919C5.66116 5.92503 5.02375 6.51917 5.02375 7.72782C5.02375 8.93651 5.90792 10.1042 6.03129 10.2681C6.15467 10.432 7.77122 12.9124 10.2464 13.9761C10.8351 14.2291 11.2948 14.3802 11.6531 14.4934C12.2442 14.6802 12.7821 14.6539 13.2072 14.5907C13.6813 14.5202 14.6671 13.9966 14.8727 13.423C15.0783 12.8494 15.0783 12.3577 15.0167 12.2553C14.955 12.1528 14.7905 12.0914 14.5437 11.9684ZM10.0416 18.0863H10.0383C8.5655 18.0857 7.12094 17.692 5.86077 16.9477L5.56103 16.7706L2.45453 17.5816L3.28373 14.5673L3.08853 14.2583C2.26693 12.9577 1.833 11.4545 1.83362 9.91107C1.83542 5.40723 5.51749 1.74305 10.0449 1.74305C12.2372 1.7439 14.298 2.5947 15.8477 4.13867C17.3974 5.68268 18.2503 7.73504 18.2495 9.91768C18.2476 14.4218 14.5656 18.0863 10.0416 18.0863ZM17.0272 2.96549C15.1627 1.10783 12.6832 0.0842908 10.0415 0.083252C4.5985 0.083252 0.168498 4.49175 0.166316 9.9105C0.165604 11.6426 0.620306 13.3335 1.48446 14.8238L0.0834961 19.9166L5.3185 18.55C6.76087 19.3329 8.38482 19.7455 10.0376 19.7462H10.0416C15.4842 19.7462 19.9146 15.3371 19.9168 9.91834C19.9178 7.29233 18.8916 4.8231 17.0272 2.96549Z" fill="white"/>
</svg>
